# Blender 4.5.3 LTS
# www.blender.org
mtllib consult.mtl
o Plano
v -4.853788 -5.000000 0.150000
v -5.000000 -4.853788 0.150000
v -4.865260 -4.999549 0.150000
v -4.876661 -4.998200 0.150000
v -4.887920 -4.995960 0.150000
v -4.898970 -4.992844 0.150000
v -4.909741 -4.988870 0.150000
v -4.920167 -4.984064 0.150000
v -4.930183 -4.978454 0.150000
v -4.939729 -4.972076 0.150000
v -4.948745 -4.964969 0.150000
v -4.957176 -4.957176 0.150000
v -4.964969 -4.948745 0.150000
v -4.972076 -4.939729 0.150000
v -4.978454 -4.930183 0.150000
v -4.984064 -4.920167 0.150000
v -4.988870 -4.909741 0.150000
v -4.992844 -4.898970 0.150000
v -4.995960 -4.887920 0.150000
v -4.998200 -4.876661 0.150000
v -4.999549 -4.865260 0.150000
v 5.000000 -4.853788 0.150000
v 4.853788 -5.000000 0.150000
v 4.999549 -4.865260 0.150000
v 4.998200 -4.876661 0.150000
v 4.995960 -4.887920 0.150000
v 4.992844 -4.898970 0.150000
v 4.988870 -4.909741 0.150000
v 4.984064 -4.920167 0.150000
v 4.978454 -4.930183 0.150000
v 4.972076 -4.939729 0.150000
v 4.964969 -4.948745 0.150000
v 4.957176 -4.957176 0.150000
v 4.948745 -4.964969 0.150000
v 4.939729 -4.972076 0.150000
v 4.930183 -4.978454 0.150000
v 4.920167 -4.984064 0.150000
v 4.909741 -4.988870 0.150000
v 4.898970 -4.992844 0.150000
v 4.887920 -4.995960 0.150000
v 4.876661 -4.998200 0.150000
v 4.865260 -4.999549 0.150000
v -4.853788 5.000000 0.150000
v -5.000000 4.853788 0.150000
v -4.865260 4.999549 0.150000
v -4.876661 4.998200 0.150000
v -4.887920 4.995960 0.150000
v -4.898970 4.992844 0.150000
v -4.909741 4.988870 0.150000
v -4.920167 4.984064 0.150000
v -4.930183 4.978454 0.150000
v -4.939729 4.972076 0.150000
v -4.948745 4.964969 0.150000
v -4.957176 4.957176 0.150000
v -4.964969 4.948745 0.150000
v -4.972076 4.939729 0.150000
v -4.978454 4.930183 0.150000
v -4.984064 4.920167 0.150000
v -4.988870 4.909741 0.150000
v -4.992844 4.898970 0.150000
v -4.995960 4.887920 0.150000
v -4.998200 4.876661 0.150000
v -4.999549 4.865260 0.150000
v 4.853788 5.000000 0.150000
v 5.000000 4.853788 0.150000
v 4.865260 4.999549 0.150000
v 4.876661 4.998200 0.150000
v 4.887920 4.995960 0.150000
v 4.898970 4.992844 0.150000
v 4.909741 4.988870 0.150000
v 4.920167 4.984064 0.150000
v 4.930183 4.978454 0.150000
v 4.939729 4.972076 0.150000
v 4.948745 4.964969 0.150000
v 4.957176 4.957176 0.150000
v 4.964969 4.948745 0.150000
v 4.972076 4.939729 0.150000
v 4.978454 4.930183 0.150000
v 4.984064 4.920167 0.150000
v 4.988870 4.909741 0.150000
v 4.992844 4.898970 0.150000
v 4.995960 4.887920 0.150000
v 4.998200 4.876661 0.150000
v 4.999549 4.865260 0.150000
v -4.853788 -5.000000 -0.130000
v -5.000000 -4.853788 -0.130000
v -4.865260 -4.999549 -0.130000
v -4.876661 -4.998200 -0.130000
v -4.887920 -4.995960 -0.130000
v -4.898970 -4.992844 -0.130000
v -4.909741 -4.988870 -0.130000
v -4.920167 -4.984064 -0.130000
v -4.930183 -4.978454 -0.130000
v -4.939729 -4.972076 -0.130000
v -4.948745 -4.964969 -0.130000
v -4.957176 -4.957176 -0.130000
v -4.964969 -4.948745 -0.130000
v -4.972076 -4.939729 -0.130000
v -4.978454 -4.930183 -0.130000
v -4.984064 -4.920167 -0.130000
v -4.988870 -4.909741 -0.130000
v -4.992844 -4.898970 -0.130000
v -4.995960 -4.887920 -0.130000
v -4.998200 -4.876661 -0.130000
v -4.999549 -4.865260 -0.130000
v 5.000000 -4.853788 -0.130000
v 4.853788 -5.000000 -0.130000
v 4.999549 -4.865260 -0.130000
v 4.998200 -4.876661 -0.130000
v 4.995960 -4.887920 -0.130000
v 4.992844 -4.898970 -0.130000
v 4.988870 -4.909741 -0.130000
v 4.984064 -4.920167 -0.130000
v 4.978454 -4.930183 -0.130000
v 4.972076 -4.939729 -0.130000
v 4.964969 -4.948745 -0.130000
v 4.957176 -4.957176 -0.130000
v 4.948745 -4.964969 -0.130000
v 4.939729 -4.972076 -0.130000
v 4.930183 -4.978454 -0.130000
v 4.920167 -4.984064 -0.130000
v 4.909741 -4.988870 -0.130000
v 4.898970 -4.992844 -0.130000
v 4.887920 -4.995960 -0.130000
v 4.876661 -4.998200 -0.130000
v 4.865260 -4.999549 -0.130000
v -4.853788 5.000000 -0.130000
v -5.000000 4.853788 -0.130000
v -4.865260 4.999549 -0.130000
v -4.876661 4.998200 -0.130000
v -4.887920 4.995960 -0.130000
v -4.898970 4.992844 -0.130000
v -4.909741 4.988870 -0.130000
v -4.920167 4.984064 -0.130000
v -4.930183 4.978454 -0.130000
v -4.939729 4.972076 -0.130000
v -4.948745 4.964969 -0.130000
v -4.957176 4.957176 -0.130000
v -4.964969 4.948745 -0.130000
v -4.972076 4.939729 -0.130000
v -4.978454 4.930183 -0.130000
v -4.984064 4.920167 -0.130000
v -4.988870 4.909741 -0.130000
v -4.992844 4.898970 -0.130000
v -4.995960 4.887920 -0.130000
v -4.998200 4.876661 -0.130000
v -4.999549 4.865260 -0.130000
v 4.853788 5.000000 -0.130000
v 5.000000 4.853788 -0.130000
v 4.865260 4.999549 -0.130000
v 4.876661 4.998200 -0.130000
v 4.887920 4.995960 -0.130000
v 4.898970 4.992844 -0.130000
v 4.909741 4.988870 -0.130000
v 4.920167 4.984064 -0.130000
v 4.930183 4.978454 -0.130000
v 4.939729 4.972076 -0.130000
v 4.948745 4.964969 -0.130000
v 4.957176 4.957176 -0.130000
v 4.964969 4.948745 -0.130000
v 4.972076 4.939729 -0.130000
v 4.978454 4.930183 -0.130000
v 4.984064 4.920167 -0.130000
v 4.988870 4.909741 -0.130000
v 4.992844 4.898970 -0.130000
v 4.995960 4.887920 -0.130000
v 4.998200 4.876661 -0.130000
v 4.999549 4.865260 -0.130000
vn -0.0000 -0.0000 1.0000
vn -0.0000 -0.0000 -1.0000
vn -1.0000 -0.0000 -0.0000
vn -0.9992 -0.0393 -0.0000
vn -0.9931 -0.1175 -0.0000
vn -0.9808 -0.1951 -0.0000
vn -0.9625 -0.2715 -0.0000
vn -0.9382 -0.3461 -0.0000
vn -0.9081 -0.4187 -0.0000
vn -0.8725 -0.4887 -0.0000
vn -0.8315 -0.5555 -0.0000
vn -0.7853 -0.6191 -0.0000
vn -0.7343 -0.6788 -0.0000
vn -0.6788 -0.7343 -0.0000
vn -0.6191 -0.7853 -0.0000
vn -0.5556 -0.8315 -0.0000
vn -0.4886 -0.8725 -0.0000
vn -0.4187 -0.9081 -0.0000
vn -0.3461 -0.9382 -0.0000
vn -0.2714 -0.9625 -0.0000
vn -0.1951 -0.9808 -0.0000
vn -0.1175 -0.9931 -0.0000
vn -0.0393 -0.9992 -0.0000
vn -0.0000 -1.0000 -0.0000
vn 0.0392 -0.9992 -0.0000
vn 0.1175 -0.9931 -0.0000
vn 0.1951 -0.9808 -0.0000
vn 0.2714 -0.9625 -0.0000
vn 0.3461 -0.9382 -0.0000
vn 0.4187 -0.9081 -0.0000
vn 0.4886 -0.8725 -0.0000
vn 0.5556 -0.8315 -0.0000
vn 0.6191 -0.7853 -0.0000
vn 0.6788 -0.7343 -0.0000
vn 0.7344 -0.6788 -0.0000
vn 0.7853 -0.6191 -0.0000
vn 0.8315 -0.5555 -0.0000
vn 0.8725 -0.4886 -0.0000
vn 0.9081 -0.4187 -0.0000
vn 0.9382 -0.3461 -0.0000
vn 0.9625 -0.2715 -0.0000
vn 0.9808 -0.1952 -0.0000
vn 0.9931 -0.1176 -0.0000
vn 0.9992 -0.0392 -0.0000
vn 1.0000 -0.0000 -0.0000
vn 0.9992 0.0393 -0.0000
vn 0.9931 0.1175 -0.0000
vn 0.9808 0.1951 -0.0000
vn 0.9625 0.2715 -0.0000
vn 0.9382 0.3461 -0.0000
vn 0.9081 0.4187 -0.0000
vn 0.8725 0.4887 -0.0000
vn 0.8315 0.5555 -0.0000
vn 0.7853 0.6191 -0.0000
vn 0.7343 0.6788 -0.0000
vn 0.6788 0.7343 -0.0000
vn 0.6191 0.7853 -0.0000
vn 0.5556 0.8315 -0.0000
vn 0.4886 0.8725 -0.0000
vn 0.4187 0.9081 -0.0000
vn 0.3461 0.9382 -0.0000
vn 0.2714 0.9625 -0.0000
vn 0.1951 0.9808 -0.0000
vn 0.1175 0.9931 -0.0000
vn 0.0393 0.9992 -0.0000
vn -0.0000 1.0000 -0.0000
vn -0.0392 0.9992 -0.0000
vn -0.1175 0.9931 -0.0000
vn -0.1951 0.9808 -0.0000
vn -0.2714 0.9625 -0.0000
vn -0.3461 0.9382 -0.0000
vn -0.4187 0.9081 -0.0000
vn -0.4886 0.8725 -0.0000
vn -0.5556 0.8315 -0.0000
vn -0.6191 0.7853 -0.0000
vn -0.6788 0.7343 -0.0000
vn -0.7344 0.6788 -0.0000
vn -0.7853 0.6191 -0.0000
vn -0.8315 0.5555 -0.0000
vn -0.8725 0.4886 -0.0000
vn -0.9081 0.4187 -0.0000
vn -0.9382 0.3461 -0.0000
vn -0.9625 0.2715 -0.0000
vn -0.9808 0.1952 -0.0000
vn -0.9931 0.1176 -0.0000
vn -0.9992 0.0392 -0.0000
vn 0.0001 -0.0000 1.0000
vn -0.0001 -0.0000 1.0000
vn -0.9992 -0.0392 -0.0000
vn -0.9931 -0.1176 -0.0000
vn -0.9808 -0.1952 -0.0000
vn -0.8725 -0.4886 -0.0000
vn -0.7344 -0.6788 -0.0000
vn -0.0392 -0.9992 -0.0000
vn 0.0393 -0.9992 -0.0000
vn 0.7343 -0.6788 -0.0000
vn 0.8725 -0.4887 -0.0000
vn 0.9808 -0.1951 -0.0000
vn 0.9931 -0.1175 -0.0000
vn 0.9992 -0.0393 -0.0000
vn 0.9992 0.0392 -0.0000
vn 0.9931 0.1176 -0.0000
vn 0.9808 0.1952 -0.0000
vn 0.8725 0.4886 -0.0000
vn 0.7344 0.6788 -0.0000
vn 0.0392 0.9992 -0.0000
vn -0.0393 0.9992 -0.0000
vn -0.7343 0.6788 -0.0000
vn -0.8725 0.4887 -0.0000
vn -0.9808 0.1951 -0.0000
vn -0.9931 0.1175 -0.0000
vn -0.9992 0.0393 -0.0000
vt 0.002155 0.006982
vt 0.999820 0.012334
vt 0.006027 0.997208
vt 0.001594 0.992017
vt 0.999596 0.988792
vt 0.006982 0.002155
vt 0.000000 0.985379
vt 0.000000 0.014621
vt 0.000045 0.013474
vt 0.000180 0.012334
vt 0.000404 0.011208
vt 0.000716 0.010103
vt 0.001113 0.009026
vt 0.001594 0.007983
vt 0.002792 0.006027
vt 0.003503 0.005125
vt 0.004282 0.004282
vt 0.005125 0.003503
vt 0.006027 0.002792
vt 0.007983 0.001594
vt 0.009026 0.001113
vt 0.010103 0.000716
vt 0.011208 0.000404
vt 0.012334 0.000180
vt 0.013474 0.000045
vt 0.014621 0.000000
vt 0.985379 0.000000
vt 0.986526 0.000045
vt 0.987666 0.000180
vt 0.988792 0.000404
vt 0.989897 0.000716
vt 0.990974 0.001113
vt 0.992017 0.001594
vt 0.993018 0.002155
vt 0.993973 0.002792
vt 0.994874 0.003503
vt 0.995718 0.004282
vt 0.996497 0.005125
vt 0.997208 0.006027
vt 0.997845 0.006982
vt 0.998406 0.007983
vt 0.998887 0.009026
vt 0.999284 0.010103
vt 0.999596 0.011208
vt 0.999955 0.013474
vt 1.000000 0.014621
vt 1.000000 0.985379
vt 0.999955 0.986526
vt 0.999820 0.987666
vt 0.999284 0.989897
vt 0.998887 0.990974
vt 0.998406 0.992017
vt 0.997845 0.993018
vt 0.997208 0.993973
vt 0.996497 0.994874
vt 0.995718 0.995718
vt 0.994874 0.996497
vt 0.993973 0.997208
vt 0.993018 0.997845
vt 0.992017 0.998406
vt 0.990974 0.998887
vt 0.989897 0.999284
vt 0.988792 0.999596
vt 0.987666 0.999820
vt 0.986526 0.999955
vt 0.985379 1.000000
vt 0.014621 1.000000
vt 0.013474 0.999955
vt 0.012334 0.999820
vt 0.011208 0.999596
vt 0.010103 0.999284
vt 0.009026 0.998887
vt 0.007983 0.998406
vt 0.006982 0.997845
vt 0.005125 0.996497
vt 0.004282 0.995718
vt 0.003503 0.994874
vt 0.002792 0.993973
vt 0.002155 0.993018
vt 0.001113 0.990974
vt 0.000716 0.989897
vt 0.000404 0.988792
vt 0.000180 0.987666
vt 0.000045 0.986526
s 0
usemtl Materiais.001
f 15/1/1 25/2/1 52/3/1
f 142/4/2 166/5/2 93/6/2
f 44/7/3 86/8/3 2/8/3
f 2/8/4 105/9/4 21/9/4
f 21/9/5 104/10/5 20/10/5
f 20/10/6 103/11/6 19/11/6
f 19/11/7 102/12/7 18/12/7
f 18/12/8 101/13/8 17/13/8
f 17/13/9 100/14/9 16/14/9
f 16/14/10 99/1/10 15/1/10
f 15/1/11 98/15/11 14/15/11
f 14/15/12 97/16/12 13/16/12
f 13/16/13 96/17/13 12/17/13
f 12/17/14 95/18/14 11/18/14
f 11/18/15 94/19/15 10/19/15
f 10/19/16 93/6/16 9/6/16
f 9/6/17 92/20/17 8/20/17
f 8/20/18 91/21/18 7/21/18
f 7/21/19 90/22/19 6/22/19
f 6/22/20 89/23/20 5/23/20
f 5/23/21 88/24/21 4/24/21
f 4/24/22 87/25/22 3/25/22
f 3/25/23 85/26/23 1/26/23
f 1/26/24 107/27/24 23/27/24
f 23/27/25 126/28/25 42/28/25
f 42/28/26 125/29/26 41/29/26
f 41/29/27 124/30/27 40/30/27
f 40/30/28 123/31/28 39/31/28
f 39/31/29 122/32/29 38/32/29
f 38/32/30 121/33/30 37/33/30
f 37/33/31 120/34/31 36/34/31
f 36/34/32 119/35/32 35/35/32
f 35/35/33 118/36/33 34/36/33
f 34/36/34 117/37/34 33/37/34
f 33/37/35 116/38/35 32/38/35
f 32/38/36 115/39/36 31/39/36
f 31/39/37 114/40/37 30/40/37
f 30/40/38 113/41/38 29/41/38
f 29/41/39 112/42/39 28/42/39
f 28/42/40 111/43/40 27/43/40
f 27/43/41 110/44/41 26/44/41
f 26/44/42 109/2/42 25/2/42
f 25/2/43 108/45/43 24/45/43
f 24/45/44 106/46/44 22/46/44
f 22/46/45 149/47/45 65/47/45
f 65/47/46 168/48/46 84/48/46
f 84/48/47 167/49/47 83/49/47
f 83/49/48 166/5/48 82/5/48
f 82/5/49 165/50/49 81/50/49
f 81/50/50 164/51/50 80/51/50
f 80/51/51 163/52/51 79/52/51
f 79/52/52 162/53/52 78/53/52
f 78/53/53 161/54/53 77/54/53
f 77/54/54 160/55/54 76/55/54
f 76/55/55 159/56/55 75/56/55
f 75/56/56 158/57/56 74/57/56
f 74/57/57 157/58/57 73/58/57
f 73/58/58 156/59/58 72/59/58
f 72/59/59 155/60/59 71/60/59
f 71/60/60 154/61/60 70/61/60
f 70/61/61 153/62/61 69/62/61
f 69/62/62 152/63/62 68/63/62
f 68/63/63 151/64/63 67/64/63
f 67/64/64 150/65/64 66/65/64
f 66/65/65 148/66/65 64/66/65
f 64/66/66 127/67/66 43/67/66
f 43/67/67 129/68/67 45/68/67
f 45/68/68 130/69/68 46/69/68
f 46/69/69 131/70/69 47/70/69
f 47/70/70 132/71/70 48/71/70
f 48/71/71 133/72/71 49/72/71
f 49/72/72 134/73/72 50/73/72
f 50/73/73 135/74/73 51/74/73
f 51/74/74 136/3/74 52/3/74
f 52/3/75 137/75/75 53/75/75
f 53/75/76 138/76/76 54/76/76
f 54/76/77 139/77/77 55/77/77
f 55/77/78 140/78/78 56/78/78
f 56/78/79 141/79/79 57/79/79
f 57/79/80 142/4/80 58/4/80
f 58/4/81 143/80/81 59/80/81
f 59/80/82 144/81/82 60/81/82
f 60/81/83 145/82/83 61/82/83
f 61/82/84 146/83/84 62/83/84
f 62/83/85 147/84/85 63/84/85
f 63/84/86 128/7/86 44/7/86
f 44/7/87 2/8/87 21/9/87
f 21/9/1 20/10/1 19/11/1
f 19/11/1 18/12/1 17/13/1
f 17/13/1 16/14/1 15/1/1
f 15/1/1 14/15/1 13/16/1
f 13/16/1 12/17/1 11/18/1
f 11/18/1 10/19/1 9/6/1
f 9/6/1 8/20/1 7/21/1
f 7/21/1 6/22/1 5/23/1
f 5/23/1 4/24/1 3/25/1
f 3/25/1 1/26/1 23/27/1
f 23/27/1 42/28/1 41/29/1
f 41/29/1 40/30/1 39/31/1
f 39/31/1 38/32/1 37/33/1
f 37/33/1 36/34/1 35/35/1
f 35/35/1 34/36/1 33/37/1
f 33/37/87 32/38/87 31/39/87
f 31/39/1 30/40/1 29/41/1
f 29/41/87 28/42/87 27/43/87
f 27/43/1 26/44/1 25/2/1
f 25/2/1 24/45/1 22/46/1
f 22/46/88 65/47/88 84/48/88
f 84/48/1 83/49/1 82/5/1
f 82/5/1 81/50/1 80/51/1
f 80/51/1 79/52/1 78/53/1
f 78/53/1 77/54/1 76/55/1
f 76/55/1 75/56/1 74/57/1
f 74/57/1 73/58/1 72/59/1
f 72/59/1 71/60/1 70/61/1
f 70/61/1 69/62/1 68/63/1
f 68/63/1 67/64/1 66/65/1
f 66/65/1 64/66/1 43/67/1
f 43/67/1 45/68/1 46/69/1
f 46/69/1 47/70/1 48/71/1
f 48/71/1 49/72/1 50/73/1
f 50/73/1 51/74/1 52/3/1
f 52/3/1 53/75/1 54/76/1
f 54/76/88 55/77/88 56/78/88
f 56/78/1 57/79/1 58/4/1
f 58/4/88 59/80/88 60/81/88
f 60/81/1 61/82/1 62/83/1
f 62/83/1 63/84/1 44/7/1
f 44/7/1 21/9/1 19/11/1
f 19/11/1 17/13/1 15/1/1
f 15/1/1 13/16/1 11/18/1
f 11/18/1 9/6/1 7/21/1
f 7/21/1 5/23/1 3/25/1
f 3/25/1 23/27/1 41/29/1
f 41/29/1 39/31/1 37/33/1
f 37/33/1 35/35/1 33/37/1
f 33/37/1 31/39/1 29/41/1
f 29/41/1 27/43/1 25/2/1
f 25/2/1 22/46/1 84/48/1
f 84/48/1 82/5/1 80/51/1
f 80/51/1 78/53/1 76/55/1
f 76/55/1 74/57/1 72/59/1
f 72/59/1 70/61/1 68/63/1
f 68/63/1 66/65/1 43/67/1
f 43/67/1 46/69/1 48/71/1
f 48/71/1 50/73/1 52/3/1
f 52/3/1 54/76/1 56/78/1
f 56/78/1 58/4/1 60/81/1
f 60/81/1 62/83/1 44/7/1
f 44/7/1 19/11/1 15/1/1
f 15/1/1 11/18/1 7/21/1
f 7/21/1 3/25/1 41/29/1
f 41/29/1 37/33/1 33/37/1
f 33/37/1 29/41/1 25/2/1
f 25/2/1 84/48/1 80/51/1
f 80/51/1 76/55/1 72/59/1
f 72/59/1 68/63/1 43/67/1
f 43/67/1 48/71/1 52/3/1
f 52/3/1 56/78/1 60/81/1
f 60/81/1 44/7/1 15/1/1
f 15/1/1 7/21/1 41/29/1
f 41/29/1 33/37/1 25/2/1
f 25/2/1 80/51/1 72/59/1
f 72/59/1 43/67/1 52/3/1
f 52/3/1 60/81/1 15/1/1
f 15/1/1 41/29/1 25/2/1
f 25/2/1 72/59/1 52/3/1
f 105/9/2 86/8/2 128/7/2
f 128/7/2 147/84/2 146/83/2
f 146/83/2 145/82/2 144/81/2
f 144/81/2 143/80/2 142/4/2
f 142/4/2 141/79/2 140/78/2
f 140/78/2 139/77/2 138/76/2
f 138/76/2 137/75/2 136/3/2
f 136/3/2 135/74/2 134/73/2
f 134/73/2 133/72/2 132/71/2
f 132/71/2 131/70/2 130/69/2
f 130/69/2 129/68/2 127/67/2
f 127/67/2 148/66/2 150/65/2
f 150/65/2 151/64/2 152/63/2
f 152/63/2 153/62/2 154/61/2
f 154/61/2 155/60/2 156/59/2
f 156/59/2 157/58/2 158/57/2
f 158/57/2 159/56/2 160/55/2
f 160/55/2 161/54/2 162/53/2
f 162/53/2 163/52/2 164/51/2
f 164/51/2 165/50/2 166/5/2
f 166/5/2 167/49/2 168/48/2
f 168/48/2 149/47/2 106/46/2
f 106/46/2 108/45/2 109/2/2
f 109/2/2 110/44/2 111/43/2
f 111/43/2 112/42/2 113/41/2
f 113/41/2 114/40/2 115/39/2
f 115/39/2 116/38/2 117/37/2
f 117/37/2 118/36/2 119/35/2
f 119/35/2 120/34/2 121/33/2
f 121/33/2 122/32/2 123/31/2
f 123/31/2 124/30/2 125/29/2
f 125/29/2 126/28/2 107/27/2
f 107/27/2 85/26/2 87/25/2
f 87/25/2 88/24/2 89/23/2
f 89/23/2 90/22/2 91/21/2
f 91/21/2 92/20/2 93/6/2
f 93/6/2 94/19/2 95/18/2
f 95/18/2 96/17/2 97/16/2
f 97/16/2 98/15/2 99/1/2
f 99/1/2 100/14/2 101/13/2
f 101/13/2 102/12/2 103/11/2
f 103/11/2 104/10/2 105/9/2
f 105/9/2 128/7/2 146/83/2
f 146/83/2 144/81/2 142/4/2
f 142/4/2 140/78/2 138/76/2
f 138/76/2 136/3/2 134/73/2
f 134/73/2 132/71/2 130/69/2
f 130/69/2 127/67/2 150/65/2
f 150/65/2 152/63/2 154/61/2
f 154/61/2 156/59/2 158/57/2
f 158/57/2 160/55/2 162/53/2
f 162/53/2 164/51/2 166/5/2
f 166/5/2 168/48/2 106/46/2
f 106/46/2 109/2/2 111/43/2
f 111/43/2 113/41/2 115/39/2
f 115/39/2 117/37/2 119/35/2
f 119/35/2 121/33/2 123/31/2
f 123/31/2 125/29/2 107/27/2
f 107/27/2 87/25/2 89/23/2
f 89/23/2 91/21/2 93/6/2
f 93/6/2 95/18/2 97/16/2
f 97/16/2 99/1/2 101/13/2
f 101/13/2 103/11/2 105/9/2
f 105/9/2 146/83/2 142/4/2
f 142/4/2 138/76/2 134/73/2
f 134/73/2 130/69/2 150/65/2
f 150/65/2 154/61/2 158/57/2
f 158/57/2 162/53/2 166/5/2
f 166/5/2 106/46/2 111/43/2
f 111/43/2 115/39/2 119/35/2
f 119/35/2 123/31/2 107/27/2
f 107/27/2 89/23/2 93/6/2
f 93/6/2 97/16/2 101/13/2
f 101/13/2 105/9/2 142/4/2
f 142/4/2 134/73/2 150/65/2
f 150/65/2 158/57/2 166/5/2
f 166/5/2 111/43/2 119/35/2
f 119/35/2 107/27/2 93/6/2
f 93/6/2 101/13/2 142/4/2
f 142/4/2 150/65/2 166/5/2
f 166/5/2 119/35/2 93/6/2
f 44/7/3 128/7/3 86/8/3
f 2/8/89 86/8/89 105/9/89
f 21/9/90 105/9/90 104/10/90
f 20/10/91 104/10/91 103/11/91
f 19/11/7 103/11/7 102/12/7
f 18/12/8 102/12/8 101/13/8
f 17/13/9 101/13/9 100/14/9
f 16/14/92 100/14/92 99/1/92
f 15/1/11 99/1/11 98/15/11
f 14/15/12 98/15/12 97/16/12
f 13/16/93 97/16/93 96/17/93
f 12/17/14 96/17/14 95/18/14
f 11/18/15 95/18/15 94/19/15
f 10/19/16 94/19/16 93/6/16
f 9/6/17 93/6/17 92/20/17
f 8/20/18 92/20/18 91/21/18
f 7/21/19 91/21/19 90/22/19
f 6/22/20 90/22/20 89/23/20
f 5/23/21 89/23/21 88/24/21
f 4/24/22 88/24/22 87/25/22
f 3/25/94 87/25/94 85/26/94
f 1/26/24 85/26/24 107/27/24
f 23/27/95 107/27/95 126/28/95
f 42/28/26 126/28/26 125/29/26
f 41/29/27 125/29/27 124/30/27
f 40/30/28 124/30/28 123/31/28
f 39/31/29 123/31/29 122/32/29
f 38/32/30 122/32/30 121/33/30
f 37/33/31 121/33/31 120/34/31
f 36/34/32 120/34/32 119/35/32
f 35/35/33 119/35/33 118/36/33
f 34/36/34 118/36/34 117/37/34
f 33/37/96 117/37/96 116/38/96
f 32/38/36 116/38/36 115/39/36
f 31/39/37 115/39/37 114/40/37
f 30/40/97 114/40/97 113/41/97
f 29/41/39 113/41/39 112/42/39
f 28/42/40 112/42/40 111/43/40
f 27/43/41 111/43/41 110/44/41
f 26/44/98 110/44/98 109/2/98
f 25/2/99 109/2/99 108/45/99
f 24/45/100 108/45/100 106/46/100
f 22/46/45 106/46/45 149/47/45
f 65/47/101 149/47/101 168/48/101
f 84/48/102 168/48/102 167/49/102
f 83/49/103 167/49/103 166/5/103
f 82/5/49 166/5/49 165/50/49
f 81/50/50 165/50/50 164/51/50
f 80/51/51 164/51/51 163/52/51
f 79/52/104 163/52/104 162/53/104
f 78/53/53 162/53/53 161/54/53
f 77/54/54 161/54/54 160/55/54
f 76/55/105 160/55/105 159/56/105
f 75/56/56 159/56/56 158/57/56
f 74/57/57 158/57/57 157/58/57
f 73/58/58 157/58/58 156/59/58
f 72/59/59 156/59/59 155/60/59
f 71/60/60 155/60/60 154/61/60
f 70/61/61 154/61/61 153/62/61
f 69/62/62 153/62/62 152/63/62
f 68/63/63 152/63/63 151/64/63
f 67/64/64 151/64/64 150/65/64
f 66/65/106 150/65/106 148/66/106
f 64/66/66 148/66/66 127/67/66
f 43/67/107 127/67/107 129/68/107
f 45/68/68 129/68/68 130/69/68
f 46/69/69 130/69/69 131/70/69
f 47/70/70 131/70/70 132/71/70
f 48/71/71 132/71/71 133/72/71
f 49/72/72 133/72/72 134/73/72
f 50/73/73 134/73/73 135/74/73
f 51/74/74 135/74/74 136/3/74
f 52/3/75 136/3/75 137/75/75
f 53/75/76 137/75/76 138/76/76
f 54/76/108 138/76/108 139/77/108
f 55/77/78 139/77/78 140/78/78
f 56/78/79 140/78/79 141/79/79
f 57/79/109 141/79/109 142/4/109
f 58/4/81 142/4/81 143/80/81
f 59/80/82 143/80/82 144/81/82
f 60/81/83 144/81/83 145/82/83
f 61/82/110 145/82/110 146/83/110
f 62/83/111 146/83/111 147/84/111
f 63/84/112 147/84/112 128/7/112
