<?xml version="1.0" encoding="UTF-8" standalone="no"?>
<!-- Created with Inkscape (http://www.inkscape.org/) -->

<svg
   version="1.1"
   id="svg1"
   width="213"
   height="266"
   viewBox="0 0 213 266"
   xmlns="http://www.w3.org/2000/svg"
   xmlns:svg="http://www.w3.org/2000/svg">
  <defs
     id="defs1" />
  <g
     id="g1"
     style="display:inline">
    <path
       style="display:inline;fill:none;stroke:#887bb6;stroke-opacity:1;stroke-width:9.07086614;stroke-dasharray:none"
       d="m 108,250.54263 c -3.025,-0.77427 -7.17305,-2.11312 -9.217881,-2.9752 -2.044835,-0.86209 -5.644835,-1.57058 -8,-1.57444 C 85.57568,245.98448 71.502787,242.74572 64,239.82933 44.51711,232.25616 23.973953,213.76872 14.748834,195.50665 4.3009619,174.824 2.6271837,153.45203 9.5794246,129.5 17.064461,103.71237 54.101096,37.546308 69.555999,22.351665 82.949475,9.183734 103.00334,3.245181 119.53544,7.551246 c 19.02395,4.95511 33.47362,20.723771 38.55514,42.074527 1.83427,7.706978 2.06587,11.22829 1.76075,26.771428 L 159.5,94.2944 l 6,1.67357 c 15.38986,4.29266 28.53367,15.20225 35.88975,29.78911 4.15384,8.23693 6.80926,21.14547 6.83841,33.24292 0.0885,36.73862 -27.09053,74.72809 -63.82457,89.21071 -6.93306,2.7334 -9.31575,3.15433 -19.40359,3.42787 -7.58469,0.20566 -13.37254,-0.16747 -17,-1.09595 z m 23.56634,-9.63416 c 12.55499,-2.30955 27.30198,-10.97661 39.20264,-23.04006 17.36643,-17.60399 26.20778,-37.8019 26.22401,-59.90831 0.02,-27.25559 -13.84056,-46.42983 -37.99299,-52.55817 -9.17527,-2.32809 -26.94247,-1.46829 -41.24177,1.99581 -5.90798,1.43124 -12.43298,2.59692 -14.5,2.59039 -6.442941,-0.0203 -14.505836,-2.76903 -20.478939,-6.98138 l -5.738878,-4.04716 -5.986054,5.98605 c -6.265885,6.26589 -10.887552,9.02257 -23.57904,14.06416 -8.626307,3.42674 -16.680516,8.34293 -20.66035,12.61083 -1.476766,1.58365 -4.176766,5.80437 -6,9.37937 -3.260282,6.39277 -3.314216,6.71446 -3.269338,19.5 0.04295,12.23669 0.234231,13.47451 3.257675,21.08142 10.458854,26.31422 30.976343,44.73586 57.137084,51.30057 15.859664,3.97978 31.67793,2.53132 44.93864,-4.115 C 129.51869,225.43916 144,212.84692 144,210.40122 c 0,-2.31978 -3.55934,-1.59518 -9.69642,1.97397 -3.19197,1.85635 -9.25417,4.55635 -13.47155,6 -6.53115,2.23567 -9.34801,2.62168 -19,2.60372 -9.358439,-0.0174 -12.512166,-0.43759 -18.108172,-2.41253 -9.071217,-3.20142 -15.509589,-7.48751 -22.356435,-14.88292 -21.156891,-22.85197 -17.454932,-57.25925 7.418595,-68.95096 5.14706,-2.41936 7.593112,-2.9546 13.5,-2.95405 7.623837,7.1e-4 16.542173,2.82683 22.653932,7.17879 l 2.95278,2.10257 3.94563,-5.27991 c 10.7719,-14.41459 21.50812,-20.3485 35.48725,-19.6138 22.0636,1.15959 35.55178,21.94954 30.29757,46.69899 -2.40932,11.34887 -7.7372,21.06603 -16.79981,30.64006 -6.68404,7.06122 -7.59889,8.43626 -6.31942,9.49813 6.18468,5.13283 -8.27517,24.87997 -24.89935,34.00385 -4.18253,2.2955 -7.6046,4.35797 -7.6046,4.58326 0,0.69718 3.37865,0.45634 9.56634,-0.68192 z m -10.92516,-33.42539 c 3.67776,-1.38431 10.55054,-5.09681 15.27283,-8.25 L 144.5,193.5 l -7,-0.65115 c -8.58593,-0.79866 -10.74861,-1.61983 -21.28782,-8.08297 -6.58302,-4.03702 -9.45644,-5.20452 -13.66898,-5.55385 -7.038652,-0.5837 -14.83227,1.98082 -17.528965,5.76798 -2.736902,3.84362 -2.698398,11.17692 0.08231,15.6762 5.496066,8.89282 21.757965,12.01616 35.544635,6.82687 z m -48.057182,-13.7332 c 0.14455,-10.7552 7.049175,-19.93461 17.207863,-22.87714 7.304207,-2.11571 17.874639,-1.67179 22.958139,0.96415 3.85656,1.99975 4.66768,1.99949 4.39693,-0.001 -0.29434,-2.17516 3.30334,-11.21718 5.50352,-13.83194 5.1057,-6.06778 15.19972,-9.2434 22.75239,-7.15801 9.02149,2.49095 14.56672,9.12615 15.59007,18.65444 l 0.64442,6 2.23804,-4.9652 c 8.58526,-19.04678 3.02605,-38.50052 -12.30687,-43.06631 -6.51816,-1.94096 -8.44652,-1.86021 -15.10949,0.63273 -7.2046,2.69559 -14.88323,10.37152 -19.87182,19.86481 -4.48814,8.54095 -6.38262,8.98493 -13.40778,3.14213 -7.66825,-6.37763 -12.752913,-8.52897 -20.25783,-8.57117 -5.612699,-0.0316 -7.296374,0.40689 -11.469073,2.98667 -6.229439,3.85136 -9.985604,9.28223 -12.035722,17.4019 -1.901753,7.53205 -1.046761,13.83435 3.107978,22.9095 1.972223,4.3079 8.786798,14.16548 9.792187,14.16482 0.100677,-7e-5 0.220849,-2.81257 0.267048,-6.25 z m 69.100902,-10.8135 c 7.47946,-2.82593 11.24588,-11.30197 7.89854,-17.77502 C 147.56629,161.26062 145.22953,160 140.01608,160 c -7.59353,0 -13.02145,4.88063 -13.01234,11.70034 0.005,3.98911 3.48877,9.17502 7.26595,10.81707 3.97031,1.726 3.95774,1.72529 7.41521,0.41897 z M 51.590607,106.20886 c 5.745126,-2.93095 14.165448,-10.81036 16.552334,-15.489047 1.879732,-3.68458 1.940036,-4.471055 0.753066,-9.821395 C 67.326664,73.824501 67.862622,73.501712 55.444163,89 50.376071,95.325 43.477824,103.18591 40.114725,106.4687 36.751626,109.75148 34,112.73986 34,113.10953 c 0,0.74256 11.290761,-3.68673 17.590607,-6.90067 z m 59.977893,-8.7142 c 10.83856,-3.30847 20.79425,-14.110263 26.51491,-28.768333 2.777,-7.115517 3.22443,-9.531465 3.31355,-17.891786 0.0567,-5.316002 -0.21384,-9.982878 -0.60113,-10.370835 -0.38729,-0.387957 -3.18328,1.504225 -6.21332,4.204849 -9.28282,8.273644 -19.90462,12.46384 -38.936363,15.360014 -3.76962,0.573646 -9.015263,2.138261 -11.656985,3.476923 -4.205079,2.130875 -4.885545,2.921732 -5.465017,6.351597 -1.1884,7.034076 2.651917,17.099501 8.762991,22.967691 6.170833,5.92558 14.757574,7.57702 24.281364,4.66988 z M 48.263156,81.25823 C 53.632892,74.588846 60.355108,67.094903 63.201416,64.605023 72.275153,56.667538 85.077814,50.936995 98.331448,48.880624 112.5405,46.676014 123.19457,41.682899 130.94617,33.595469 132.84156,31.617961 135.06325,30 135.88326,30 138.71362,30 131.67674,23.966186 125.03055,20.694275 118.92091,17.686508 117.89733,17.5 107.5,17.5 97.073718,17.5 96.091503,17.680399 89.8869,20.734915 80.1852,25.511046 74.811733,30.851838 65.581805,44.892216 54.451249,61.823791 32.389262,100.73613 37.205157,94.94219 37.917321,94.0854 42.89342,87.927613 48.263156,81.25823 Z M 148.89902,92.37768 c 0.65592,-0.56283 2.221,-21.514863 1.89274,-25.338542 -0.29389,-3.423359 -0.36377,-3.344252 -2.13599,2.418151 -2.07797,6.756554 -5.8292,14.616333 -9.08848,19.042711 -4.14934,5.63515 -4.20445,5.53352 2.62975,4.85024 3.46663,-0.34659 6.48252,-0.78424 6.70198,-0.97256 z"
       id="path2" />
  </g>
</svg>
