<svg xmlns="http://www.w3.org/2000/svg" xmlns:xlink="http://www.w3.org/1999/xlink" version="1.1" id="Layer_1" x="0px" y="0px" viewBox="0 0 557.81 263.83" enable-background="new 0 0 557.81 263.83" xml:space="preserve">
<g>
	<g>
		<path fill="#bdbdbd" d="M44.58,221.02c-1.13,2.59-2.71,4.95-4.73,7.1c-2.02,2.14-4.49,3.96-7.42,5.45    c-2.93,1.49-6.31,2.46-10.13,2.92c-4.15,0.49-7.67,0.28-10.54-0.65c-2.88-0.93-5.19-2.25-6.95-3.99    c-1.76-1.73-3.03-3.76-3.81-6.08c-0.78-2.32-1.1-4.63-0.97-6.93l3.33-59.52c0.09-1.7,1.06-2.66,2.88-2.88l7.35-0.88    c0.58-0.07,1.22-0.06,1.92,0.02c0.69,0.09,1.32,0.29,1.88,0.6c0.56,0.31,1.03,0.77,1.41,1.35c0.38,0.59,0.55,1.31,0.5,2.16    l-3.17,56.71c-0.09,1.62,0.35,3,1.31,4.16c0.97,1.15,2.65,1.63,5.06,1.43c2.91-0.35,4.94-1.33,6.1-2.95    c1.16-1.62,1.78-3.11,1.86-4.47l8.21-146.75c0.1-1.79,0.83-3.35,2.18-4.7c1.35-1.35,2.86-2.12,4.52-2.32L52.22,60    c1.16-0.14,1.92-0.02,2.27,0.36c0.35,0.38,0.49,1.17,0.42,2.36L46.5,213.18C46.36,215.82,45.71,218.44,44.58,221.02z"/>
		<path fill="#bdbdbd" d="M75.75,213.56c0.96,1.28,2.77,1.76,5.43,1.45c2.57-0.31,4.46-1.17,5.65-2.58    c1.19-1.41,1.84-2.97,1.93-4.67l8.22-146.88c0.1-1.79,0.81-3.35,2.12-4.69c1.31-1.34,2.8-2.11,4.46-2.31l6.85-0.82    c1.16-0.14,1.94-0.02,2.33,0.36c0.39,0.38,0.55,1.16,0.49,2.35l-8.42,150.58c-0.14,2.47-0.76,5-1.85,7.58    c-1.09,2.58-2.65,4.95-4.67,7.09c-2.02,2.14-4.49,3.98-7.42,5.52c-2.93,1.53-6.35,2.53-10.25,3c-3.74,0.45-7.03,0.29-9.87-0.47    c-2.85-0.76-5.21-1.98-7.1-3.66c-1.89-1.68-3.28-3.67-4.18-5.97c-0.9-2.3-1.28-4.82-1.12-7.54l8.42-150.58    c0.07-1.19,0.3-2.02,0.7-2.49c0.4-0.47,1.18-0.77,2.34-0.91l6.85-0.82c1.66-0.2,3.1,0.22,4.32,1.26c1.22,1.04,1.78,2.45,1.68,4.24    l-8.22,146.88C74.35,210.92,74.79,212.28,75.75,213.56z"/>
		<path fill="#bdbdbd" d="M138.78,222.61c-3.66,0.44-6.89,0.31-9.69-0.37c-2.81-0.68-5.16-1.82-7.05-3.41    c-1.89-1.59-3.29-3.58-4.18-5.97c-0.9-2.39-1.27-5.03-1.1-7.92l2.16-38.57c0.1-1.7,1.06-2.66,2.88-2.88l7.35-0.88    c0.58-0.07,1.22-0.06,1.92,0.03c0.7,0.09,1.32,0.29,1.88,0.6c0.56,0.31,1.03,0.77,1.41,1.35c0.38,0.59,0.55,1.31,0.5,2.16    l-2,35.76c-0.1,1.7,0.4,3.12,1.49,4.26c1.09,1.14,2.84,1.56,5.25,1.28c2.49-0.3,4.35-1.15,5.59-2.57c1.23-1.42,1.9-2.97,1.99-4.68    c0.47-8.43,0.17-16.24-0.92-23.43c-1.08-7.19-2.57-14.09-4.47-20.72c-1.9-6.62-3.97-13.14-6.21-19.56    c-2.24-6.41-4.3-13.1-6.18-20.07c-1.88-6.96-3.34-14.34-4.39-22.12c-1.05-7.78-1.31-16.36-0.79-25.72    c0.16-2.89,0.85-5.64,2.07-8.24c1.22-2.6,2.87-4.93,4.97-7c2.1-2.07,4.61-3.8,7.53-5.21c2.93-1.4,6.13-2.32,9.62-2.73    c3.57-0.43,6.78-0.28,9.63,0.44c2.85,0.72,5.26,1.87,7.23,3.45c1.97,1.58,3.43,3.55,4.37,5.89c0.94,2.34,1.33,4.96,1.17,7.85    l-2.23,39.85c-0.1,1.7-1.1,2.67-3.01,2.9l-7.23,0.86c-1.25,0.15-2.53-0.08-3.86-0.68c-1.33-0.6-1.94-1.8-1.84-3.59l2.06-36.78    c0.09-1.7-0.4-3.14-1.49-4.33c-1.09-1.18-2.88-1.62-5.37-1.33s-4.36,1.2-5.6,2.7c-1.24,1.5-1.9,3.06-1.99,4.68    c-0.44,7.84-0.1,15.15,1,21.96c1.11,6.8,2.61,13.45,4.52,19.95c1.9,6.5,3.98,12.97,6.21,19.43c2.24,6.46,4.29,13.25,6.16,20.39    c1.87,7.14,3.32,14.77,4.35,22.89c1.03,8.12,1.27,17.08,0.72,26.87c-0.16,2.9-0.86,5.66-2.07,8.3c-1.22,2.64-2.88,5-4.97,7.06    c-2.1,2.07-4.63,3.79-7.59,5.15C145.62,221.28,142.36,222.18,138.78,222.61z"/>
		<path fill="#bdbdbd" d="M222.77,39.67c1.91-0.23,2.8,0.77,2.68,2.98l-0.14,2.43c-0.16,2.81-0.92,4.99-2.28,6.55    c-1.37,1.56-3.21,2.48-5.54,2.75l-7.35,0.88l-8.61,153.9c-0.13,2.39-1.36,3.71-3.69,3.99l-9.22,1.1c-1.25,0.15-2.1-0.02-2.57-0.52    c-0.47-0.49-0.67-1.38-0.59-2.66l8.61-153.9l-7.97,0.95c-4.9,0.58-7.19-1.93-6.88-7.55l0.14-2.43c0.12-2.21,1.14-3.43,3.05-3.66    L222.77,39.67z"/>
		<path fill="#bdbdbd" d="M240.03,204.45c-0.14,2.47-1.41,3.85-3.82,4.14l-8.97,1.07c-2.33,0.28-3.42-0.82-3.28-3.29L233,44.79    c0.11-1.96,0.84-3.59,2.19-4.89c1.35-1.3,2.86-2.05,4.52-2.25l6.85-0.82c1.25-0.15,2.02-0.03,2.33,0.36    c0.31,0.39,0.43,1.13,0.37,2.24L240.03,204.45z"/>
		<path fill="#bdbdbd" d="M285.45,29.66c3.57-0.43,6.74-0.27,9.5,0.45c2.76,0.73,5.09,1.91,6.98,3.55c1.89,1.64,3.3,3.62,4.24,5.96    c0.94,2.34,1.33,4.92,1.18,7.73l-3.04,54.41c-0.1,1.7-1.06,2.66-2.88,2.88l-7.23,0.86c-1.25,0.15-2.53-0.08-3.86-0.68    c-1.33-0.6-1.94-1.75-1.85-3.46l2.88-51.47c0.09-1.7-0.44-3.14-1.62-4.31c-1.17-1.17-2.96-1.61-5.37-1.33    c-2.41,0.29-4.23,1.16-5.47,2.62c-1.24,1.46-1.9,3.04-2,4.74l-7.53,134.62c-0.1,1.7,0.4,3.12,1.49,4.26    c1.09,1.14,2.88,1.56,5.37,1.26c2.66-0.32,4.54-1.24,5.66-2.77c1.12-1.53,1.72-3.02,1.8-4.46l2.87-51.34    c0.05-0.85,0.3-1.62,0.75-2.31c0.45-0.69,0.98-1.26,1.58-1.71c0.6-0.45,1.26-0.81,1.98-1.06c0.71-0.25,1.36-0.42,1.95-0.49    l7.23-0.86c1.91-0.23,2.82,0.47,2.73,2.08l-3.04,54.28c-0.16,2.9-0.85,5.66-2.07,8.3c-1.22,2.64-2.9,5-5.04,7.07    c-2.14,2.08-4.69,3.79-7.65,5.16c-2.97,1.37-6.23,2.27-9.8,2.69c-3.57,0.43-6.74,0.3-9.51-0.39c-2.77-0.69-5.1-1.82-6.99-3.42    c-1.89-1.59-3.31-3.58-4.24-5.96c-0.94-2.38-1.33-5.02-1.17-7.92l7.59-135.77c0.16-2.89,0.85-5.64,2.07-8.24    c1.22-2.6,2.89-4.93,5.03-7.01c2.14-2.07,4.69-3.81,7.65-5.23C278.61,31,281.88,30.08,285.45,29.66z"/>
		<path fill="#bdbdbd" d="M355.2,23.88c1.91-0.23,2.8,0.77,2.68,2.98l-0.14,2.43c-0.15,2.73-0.91,4.89-2.28,6.49    c-1.37,1.6-3.22,2.54-5.54,2.82l-13.83,1.65l-3.66,65.39l15.95-1.9c1.91-0.23,2.81,0.72,2.69,2.85l-0.14,2.55    c-0.15,2.73-0.91,4.89-2.28,6.49c-1.37,1.6-3.22,2.54-5.54,2.82l-11.46,1.37l-3.56,63.73l13.83-1.65c2.32-0.28,4.09,0.21,5.3,1.46    c1.21,1.25,1.73,3.28,1.58,6.09l-0.14,2.43c-0.12,2.22-1.14,3.44-3.05,3.66l-30.77,3.67c-1.58,0.19-2.56,0.1-2.95-0.28    c-0.39-0.38-0.55-1.16-0.49-2.35l9.26-165.53c0.07-1.19,0.3-2.02,0.7-2.49c0.4-0.47,1.18-0.77,2.34-0.91L355.2,23.88z"/>
		<path fill="#bdbdbd" d="M375.45,188.3c-0.14,2.47-1.41,3.85-3.82,4.14l-8.97,1.07c-2.33,0.28-3.42-0.82-3.28-3.29l9.04-161.57    c0.11-1.96,0.84-3.59,2.19-4.89c1.35-1.3,2.86-2.05,4.52-2.25l6.85-0.82c1.25-0.15,2.02-0.03,2.33,0.36    c0.31,0.39,0.43,1.13,0.37,2.24L375.45,188.3z"/>
		<path fill="#bdbdbd" d="M434.09,181.94c-0.07,1.19-0.32,2.03-0.76,2.5c-0.44,0.48-1.24,0.78-2.4,0.92l-6.85,0.82    c-1.66,0.2-3.08-0.22-4.26-1.27c-1.18-1.04-1.72-2.46-1.62-4.25l3.26-58.37c0.1-1.7-0.4-3.14-1.49-4.33    c-1.09-1.18-2.88-1.62-5.37-1.33l-7.1,0.85l-3.63,64.88c-0.1,1.79-0.83,3.36-2.18,4.7c-1.36,1.35-2.86,2.12-4.52,2.32l-6.85,0.82    c-1.16,0.14-1.92,0.02-2.27-0.36c-0.35-0.38-0.49-1.17-0.42-2.36l9.26-165.53c0.07-1.19,0.3-2.02,0.7-2.49    c0.4-0.47,1.18-0.77,2.34-0.91l20.56-2.45c3.99-0.48,7.38-0.31,10.18,0.5c2.8,0.81,5.1,2.06,6.91,3.74    c1.8,1.69,3.09,3.71,3.87,6.07c0.78,2.36,1.09,4.86,0.94,7.5l-3.18,56.84c-0.43,7.66-3.36,13.51-8.78,17.54    c5.1,1.76,7.48,5.75,7.13,11.96L434.09,181.94z M412.33,31.15l-4.04,72.16l7.72-0.92c1.25-0.15,2.32-0.55,3.22-1.21    c0.9-0.66,1.63-1.46,2.18-2.42c0.55-0.95,0.96-1.97,1.22-3.06c0.27-1.09,0.43-2.19,0.49-3.29l3.16-56.45    c0.1-1.7-0.4-3.14-1.49-4.33c-1.09-1.18-2.88-1.62-5.37-1.33L412.33,31.15z"/>
		<path fill="#bdbdbd" d="M491.51,175.23c0.02,1.1-0.13,1.88-0.44,2.34c-0.32,0.46-1.05,0.76-2.22,0.9l-7.6,0.91    c-1.66,0.2-3.06-0.18-4.2-1.15c-1.14-0.96-1.7-2.38-1.68-4.24l-0.2-23.07l-13.95,1.66l-2.8,23.42c-0.19,1.88-0.89,3.45-2.12,4.69    c-1.23,1.25-2.67,1.97-4.33,2.17l-7.6,0.91c-1.25,0.15-2,0.03-2.27-0.36c-0.27-0.39-0.33-1.14-0.18-2.26l22.94-166.78    c0.25-1.55,0.8-2.59,1.66-3.12c0.85-0.52,1.99-0.87,3.4-1.04l12.58-1.5c1.5-0.18,2.6-0.1,3.33,0.24c0.72,0.34,1.12,1.26,1.21,2.77    L491.51,175.23z M462.61,138.83l12.71-1.52L474.81,33.6L462.61,138.83z"/>
		<path fill="#bdbdbd" d="M522.61,176.85c-3.66,0.44-6.89,0.31-9.69-0.37c-2.81-0.68-5.16-1.82-7.05-3.41    c-1.89-1.59-3.29-3.58-4.18-5.97c-0.9-2.39-1.27-5.03-1.1-7.92l2.16-38.57c0.1-1.7,1.06-2.66,2.88-2.88l7.35-0.88    c0.58-0.07,1.22-0.06,1.92,0.03c0.7,0.09,1.32,0.29,1.88,0.6c0.56,0.31,1.03,0.77,1.41,1.35c0.38,0.59,0.55,1.31,0.5,2.16    l-2,35.76c-0.1,1.7,0.4,3.12,1.49,4.26c1.09,1.14,2.84,1.56,5.25,1.28c2.49-0.3,4.35-1.15,5.59-2.57c1.23-1.42,1.9-2.97,1.99-4.68    c0.47-8.43,0.17-16.24-0.92-23.43c-1.08-7.19-2.57-14.09-4.47-20.72c-1.9-6.62-3.97-13.14-6.21-19.56    c-2.24-6.41-4.3-13.1-6.18-20.07c-1.88-6.96-3.34-14.34-4.39-22.12c-1.05-7.78-1.31-16.36-0.79-25.72    c0.16-2.89,0.85-5.64,2.07-8.24c1.22-2.6,2.87-4.93,4.97-7c2.1-2.07,4.61-3.8,7.53-5.21c2.93-1.4,6.13-2.32,9.62-2.73    c3.57-0.43,6.78-0.28,9.63,0.44c2.85,0.72,5.26,1.87,7.23,3.45c1.97,1.58,3.43,3.55,4.37,5.89c0.94,2.34,1.33,4.96,1.17,7.85    l-2.23,39.85c-0.1,1.7-1.1,2.67-3.01,2.9l-7.23,0.86c-1.25,0.15-2.53-0.08-3.86-0.68c-1.33-0.6-1.94-1.8-1.84-3.59l2.06-36.78    c0.09-1.7-0.4-3.14-1.49-4.33c-1.09-1.18-2.88-1.62-5.37-1.33c-2.49,0.3-4.36,1.2-5.6,2.7c-1.24,1.5-1.9,3.06-1.99,4.68    c-0.44,7.84-0.1,15.15,1,21.96c1.11,6.8,2.61,13.45,4.52,19.95c1.9,6.5,3.98,12.97,6.21,19.43c2.24,6.46,4.29,13.25,6.16,20.39    c1.87,7.14,3.32,14.77,4.35,22.89c1.03,8.12,1.27,17.08,0.72,26.87c-0.16,2.9-0.86,5.66-2.07,8.3c-1.22,2.64-2.88,5-4.97,7.06    c-2.1,2.07-4.63,3.79-7.59,5.16C529.44,175.53,526.18,176.42,522.61,176.85z"/>
	</g>
	<g>
		<path d="M7.16,249.49l0.06-0.26c0.76-3.36,3.82-5.71,7.79-6.2c4.66-0.57,6.07,1.52,5.13,5.68l-0.14,0.62l-1.93,0.23    c0.86-3.82-0.17-5.25-3.36-4.87l-0.19,0.02c-2.54,0.31-4.77,1.86-5.26,4.03l-0.05,0.21c-0.48,2.14,0.38,3.27,4.1,3.32    c4.42,0.04,5.89,1.59,5.19,4.69l-0.06,0.26c-0.8,3.56-3.94,6-8.12,6.51c-4.42,0.54-6.26-1.6-5.32-5.76l0.06-0.26l1.93-0.23    c-0.8,3.54,0.82,4.92,3.63,4.58l0.19-0.02c2.84-0.34,5.06-2,5.62-4.45l0.05-0.23c0.54-2.38-0.72-3.38-4.26-3.43    C7.8,253.91,6.56,252.15,7.16,249.49z" fill="#ffffff"/>
		<path d="M34.63,240.93l-0.38,1.68l-9.73,1.18l-1.66,7.36l8.39-1.02l-0.37,1.65l-8.39,1.02l-1.75,7.77l9.73-1.18l-0.38,1.68    l-11.66,1.42l4.55-20.14L34.63,240.93z" fill="#ffffff"/>
		<path d="M45.11,239.65l-3.15,13.95c-0.91,4.03-2.88,6.65-6.8,7.13c-3.99,0.49-4.77-1.73-3.84-5.84l0.08-0.36l1.82-0.22    c-0.8,3.56-0.2,5.05,2.29,4.74c2.47-0.3,3.79-2.02,4.59-5.53l3.08-13.63L45.11,239.65z" fill="#ffffff"/>
		<path d="M54.24,238.34l1.43,19.62l-2.09,0.25l-0.33-4.98l-7.64,0.93l-2.67,5.35l-2.09,0.25l10.62-21.08L54.24,238.34z     M46.47,252.42l6.65-0.81l-0.73-11.06L46.47,252.42z" fill="#ffffff"/>
		<path d="M64.09,257.14l-1.43-19.62l2.09-0.25l1.17,17.66l9.47-18.96l2.09-0.25L66.85,256.8L64.09,257.14z" fill="#ffffff"/>
		<path d="M75.38,246.27l0.23-1.03c1.57-6.97,4.61-10.13,9.38-10.71c4.79-0.58,6.53,1.99,4.96,8.96l-0.23,1.03    c-1.57,6.97-4.61,10.13-9.4,10.71C75.54,255.82,73.8,253.24,75.38,246.27z M80.8,253.55c3.51-0.43,5.64-3.05,6.93-8.78l0.23-1.03    c1.29-5.73,0.26-7.97-3.25-7.54l-0.19,0.02c-3.51,0.43-5.64,3.05-6.93,8.78l-0.23,1.03c-1.29,5.73-0.26,7.97,3.25,7.54    L80.8,253.55z" fill="#ffffff"/>
		<path d="M89.05,253.9l4.55-20.14l1.93-0.24l-4.17,18.46l8.84-1.08l-0.38,1.68L89.05,253.9z" fill="#ffffff"/>
		<path d="M101.02,246.37l3.14-13.89l1.93-0.23L102.98,246c-0.86,3.82,0.43,4.79,3.64,4.4c3.22-0.39,5.06-1.75,5.92-5.57l3.11-13.76    l1.93-0.24l-3.14,13.89c-1.1,4.85-3.75,6.81-8.2,7.35S99.93,251.22,101.02,246.37z" fill="#ffffff"/>
		<path d="M128.55,249.1l-2.09,0.25l-6.05-15.79l-0.95,4.66l-2.78,12.32l-1.82,0.22l4.55-20.14l2.09-0.25l6.02,15.79l0.98-4.66    l2.78-12.32l1.82-0.22L128.55,249.1z" fill="#ffffff"/>
		<path d="M136.37,248.14l-1.93,0.24l4.17-18.46l-5.31,0.64l0.38-1.68l12.57-1.53l-0.38,1.68l-5.33,0.65L136.37,248.14z" fill="#ffffff"/>
		<path d="M153.08,226.32l1.43,19.62l-2.09,0.25l-0.33-4.98l-7.64,0.93l-2.67,5.35l-2.09,0.25l10.62-21.08L153.08,226.32z     M145.31,240.4l6.65-0.81l-0.73-11.06L145.31,240.4z M155.26,221.99l-2.3,3.04l-1.93,0.23l2.25-3.04L155.26,221.99z" fill="#ffffff"/>
		<path d="M157.19,245.61l-1.93,0.23l4.55-20.14l5.79-0.7c2.97-0.36,6.16,0.31,5.11,4.96l-0.12,0.52c-0.72,3.2-2.7,4.9-4.82,5.76    l1.68,8.13l-2.12,0.26l-1.47-7.81c-0.33,0.06-0.65,0.1-0.97,0.14l-3.86,0.47L157.19,245.61z M163.33,235.27    c1.79-0.22,4.51-1.18,5.29-4.64l0.09-0.39c0.78-3.46-1.64-3.79-3.44-3.57l-3.91,0.48l-1.94,8.6L163.33,235.27z" fill="#ffffff"/>
		<path d="M170.96,243.94l-1.93,0.23l4.55-20.14l1.93-0.23L170.96,243.94z" fill="#ffffff"/>
		<path d="M185.23,222.41l1.43,19.62l-2.09,0.25l-0.33-4.98l-7.64,0.93l-2.67,5.35l-2.09,0.25l10.62-21.08L185.23,222.41z     M177.47,236.49l6.65-0.81l-0.73-11.06L177.47,236.49z" fill="#ffffff"/>
		<path d="M204.46,239.86l-2.09,0.25l-6.05-15.79l-0.95,4.66l-2.78,12.32l-1.82,0.22l4.55-20.14l2.09-0.25l6.02,15.79l0.97-4.66    l2.78-12.32l1.82-0.22L204.46,239.86z" fill="#ffffff"/>
		<path d="M222.62,218.07l-0.38,1.68l-9.73,1.18l-1.66,7.36l8.39-1.02l-0.37,1.65l-8.39,1.02l-1.75,7.77l9.73-1.18l-0.38,1.68    l-11.66,1.42l4.55-20.14L222.62,218.07z" fill="#ffffff"/>
		<path d="M221.94,223.37l0.06-0.26c0.76-3.36,3.82-5.71,7.78-6.2c4.66-0.57,6.07,1.52,5.13,5.68l-0.14,0.62l-1.93,0.23    c0.86-3.82-0.17-5.25-3.36-4.87l-0.19,0.02c-2.55,0.31-4.77,1.86-5.26,4.03l-0.05,0.21c-0.48,2.14,0.38,3.27,4.1,3.32    c4.42,0.04,5.89,1.59,5.2,4.69l-0.06,0.26c-0.8,3.56-3.94,6-8.12,6.51c-4.42,0.54-6.26-1.6-5.32-5.76l0.06-0.26l1.93-0.24    c-0.8,3.54,0.82,4.92,3.63,4.58l0.19-0.02c2.84-0.35,5.06-2,5.62-4.45l0.05-0.23c0.54-2.38-0.72-3.38-4.26-3.43    C222.58,227.79,221.34,226.03,221.94,223.37z" fill="#ffffff"/>
		<path d="M236.03,221.66l0.06-0.26c0.76-3.36,3.82-5.71,7.79-6.2c4.66-0.57,6.07,1.52,5.13,5.68l-0.14,0.62l-1.93,0.23    c0.86-3.82-0.17-5.25-3.36-4.87l-0.19,0.02c-2.55,0.31-4.77,1.86-5.26,4.03l-0.05,0.21c-0.48,2.14,0.38,3.27,4.1,3.32    c4.42,0.04,5.89,1.59,5.19,4.69l-0.06,0.26c-0.8,3.56-3.94,6-8.12,6.51c-4.42,0.54-6.26-1.6-5.32-5.76l0.06-0.26l1.93-0.24    c-0.8,3.54,0.82,4.92,3.63,4.58l0.19-0.02c2.84-0.35,5.06-2,5.62-4.45l0.05-0.23c0.54-2.38-0.72-3.38-4.26-3.43    C236.68,226.08,235.43,224.32,236.03,221.66z" fill="#ffffff"/>
		<path d="M259.16,213.42l1.43,19.62l-2.09,0.25l-0.33-4.98l-7.64,0.93l-2.67,5.35l-2.09,0.25l10.62-21.08L259.16,213.42z     M251.39,227.5l6.65-0.81l-0.73-11.06L251.39,227.5z" fill="#ffffff"/>
		<path d="M280.46,211.03l-0.38,1.68l-9.3,1.13l-1.66,7.36l7.96-0.97l-0.37,1.65l-7.96,0.97l-2.13,9.45l-1.93,0.24l4.55-20.14    L280.46,211.03z" fill="#ffffff"/>
		<path d="M278.13,221.61l0.23-1.03c1.57-6.97,4.61-10.13,9.38-10.71c4.8-0.58,6.53,1.99,4.96,8.97l-0.23,1.03    c-1.57,6.97-4.61,10.13-9.4,10.71C278.29,231.16,276.55,228.59,278.13,221.61z M283.54,228.89c3.51-0.43,5.64-3.05,6.93-8.78    l0.23-1.03c1.29-5.73,0.26-7.97-3.25-7.54l-0.19,0.02c-3.51,0.43-5.64,3.05-6.93,8.78l-0.23,1.03c-1.29,5.73-0.26,7.97,3.25,7.54    L283.54,228.89z" fill="#ffffff"/>
		<path d="M293.73,229.01l-1.93,0.23l4.55-20.14l5.79-0.7c2.97-0.36,6.16,0.31,5.11,4.96l-0.12,0.52c-0.72,3.2-2.7,4.9-4.82,5.76    l1.68,8.13l-2.12,0.26l-1.47-7.81c-0.33,0.06-0.65,0.1-0.97,0.14l-3.86,0.47L293.73,229.01z M299.87,218.67    c1.79-0.22,4.51-1.18,5.29-4.64l0.09-0.39c0.78-3.46-1.65-3.79-3.44-3.57l-3.91,0.48l-1.94,8.6L299.87,218.67z" fill="#ffffff"/>
		<path d="M309.17,230.82c0.4,0.18,1.09,0.24,1.79,0.16c1.04-0.13,1.59-0.37,1.74-0.99c0.13-0.59-0.46-0.72-1.48-0.6    c-0.4,0.05-0.79,0.17-0.79,0.17l-0.38-0.53l1.13-1.9c-4.34,0.3-5.81-2.33-4.29-9.02l0.23-1.03c1.57-6.97,4.53-10.12,9.32-10.7    c4.45-0.54,6.06,1.55,5.04,6.09l-0.16,0.72l-1.98,0.24c0.94-4.16,0.03-5.78-3.11-5.4l-0.19,0.02c-3.48,0.42-5.64,3.05-6.93,8.78    l-0.23,1.03c-1.29,5.73-0.26,7.97,3.25,7.54l0.19-0.02c3.14-0.38,4.86-2.38,5.61-5.71l1.98-0.24l-0.06,0.26    c-0.91,4.03-3.36,6.56-7.38,7.28l-0.72,1.24l0.11-0.01c1.31-0.16,2.56,0.22,2.23,1.66c-0.33,1.45-1.58,2.15-3.21,2.35    c-0.99,0.12-1.89,0.05-2.35-0.22L309.17,230.82z" fill="#ffffff"/>
		<path d="M331.58,204.62l1.43,19.62l-2.09,0.25l-0.33-4.98l-7.64,0.93l-2.67,5.35l-2.09,0.25l10.62-21.08L331.58,204.62z     M323.81,218.69l6.65-0.81l-0.73-11.06L323.81,218.69z" fill="#ffffff"/>
		<path d="M335.31,213.35l6.67-0.81l-0.37,1.65l-6.67,0.81L335.31,213.35z" fill="#ffffff"/>
		<path d="M346.2,222.63l-1.93,0.23l4.17-18.46l-5.31,0.65l0.38-1.68l12.57-1.53l-0.38,1.68l-5.33,0.65L346.2,222.63z" fill="#ffffff"/>
		<path d="M362.9,200.81l1.43,19.62l-2.09,0.25l-0.33-4.98l-7.64,0.93l-2.67,5.35l-2.09,0.25l10.62-21.08L362.9,200.81z     M355.13,214.88l6.65-0.81l-0.73-11.06L355.13,214.88z" fill="#ffffff"/>
		<path d="M367.01,220.1l-1.93,0.24l4.55-20.14l5.79-0.7c2.97-0.36,6.16,0.3,5.11,4.95l-0.12,0.52c-0.72,3.2-2.7,4.9-4.82,5.76    l1.68,8.13l-2.12,0.26l-1.47-7.81c-0.33,0.06-0.65,0.1-0.97,0.14l-3.86,0.47L367.01,220.1z M373.15,209.76    c1.79-0.22,4.51-1.18,5.29-4.64l0.09-0.39c0.78-3.46-1.65-3.79-3.44-3.57l-3.91,0.48l-1.94,8.6L373.15,209.76z" fill="#ffffff"/>
		<path d="M394.93,197.11l-0.38,1.68l-9.73,1.18l-1.66,7.36l8.39-1.02l-0.37,1.65l-8.39,1.02l-1.75,7.77l9.73-1.18l-0.38,1.68    l-11.66,1.42l4.55-20.14L394.93,197.11z" fill="#ffffff"/>
		<path d="M407.2,195.62l-0.38,1.68l-9.3,1.13l-1.66,7.36l7.96-0.97l-0.37,1.65l-7.96,0.97l-2.13,9.45l-1.93,0.24l4.55-20.14    L407.2,195.62z" fill="#ffffff"/>
		<path d="M414.4,194.54l1.43,19.62l-2.09,0.25l-0.33-4.98l-7.64,0.93l-2.67,5.35l-2.09,0.25l10.62-21.08L414.4,194.54z     M406.63,208.62l6.65-0.81l-0.73-11.06L406.63,208.62z" fill="#ffffff"/>
		<path d="M421.86,213.43l-1.93,0.24l4.55-20.14l5.79-0.7c2.97-0.36,6.16,0.3,5.11,4.95l-0.12,0.52c-1.04,4.62-4.72,6.12-7.69,6.49    l-3.86,0.47L421.86,213.43z M428,203.09c1.79-0.22,4.51-1.18,5.29-4.64l0.09-0.39c0.78-3.46-1.64-3.79-3.44-3.57l-3.91,0.48    l-1.94,8.6L428,203.09z" fill="#ffffff"/>
		<path d="M435.2,211.8l-1.93,0.23l4.55-20.14l5.79-0.7c2.97-0.36,6.16,0.31,5.11,4.96l-0.12,0.52c-0.72,3.2-2.69,4.9-4.82,5.76    l1.68,8.13l-2.12,0.26l-1.47-7.81c-0.33,0.06-0.65,0.1-0.97,0.14l-3.86,0.47L435.2,211.8z M441.34,201.46    c1.8-0.22,4.51-1.18,5.29-4.64l0.09-0.39c0.78-3.46-1.64-3.79-3.44-3.57l-3.91,0.48l-1.94,8.6L441.34,201.46z" fill="#ffffff"/>
		<path d="M448.35,200.91l0.23-1.03c1.57-6.97,4.61-10.13,9.38-10.71c4.8-0.58,6.53,1.99,4.96,8.97l-0.23,1.03    c-1.57,6.97-4.61,10.13-9.4,10.71C448.51,210.46,446.77,207.89,448.35,200.91z M453.76,208.19c3.51-0.43,5.64-3.04,6.93-8.78    l0.23-1.03c1.29-5.73,0.26-7.97-3.25-7.54l-0.19,0.02c-3.51,0.43-5.64,3.05-6.93,8.78l-0.23,1.03c-1.29,5.73-0.26,7.97,3.25,7.54    L453.76,208.19z M461.51,184.75l-2.3,3.04l-1.93,0.23l2.25-3.04L461.51,184.75z" fill="#ffffff"/>
		<path d="M463.57,197.76l6.67-0.81l-0.37,1.65l-6.67,0.81L463.57,197.76z" fill="#ffffff"/>
		<path d="M478.23,206.57l-1.74,0.21l-2.26-16.17l-0.91,4.48l-2.8,12.42l-1.93,0.24l4.55-20.14l2.71-0.33l2.26,16.2l9.91-17.68    l2.71-0.33l-4.55,20.14l-1.93,0.24l2.8-12.42l1.09-4.5L478.23,206.57z" fill="#ffffff"/>
		<path d="M489.37,199.14l3.14-13.89l1.93-0.23l-3.11,13.76c-0.86,3.82,0.43,4.79,3.64,4.4c3.22-0.39,5.06-1.75,5.92-5.57    l3.11-13.76l1.93-0.24l-3.14,13.89c-1.1,4.85-3.75,6.81-8.2,7.35C490.15,205.4,488.27,203.99,489.37,199.14z" fill="#ffffff"/>
		<path d="M503.21,203.53l4.55-20.14l1.93-0.24l-4.17,18.46l8.84-1.08l-0.38,1.68L503.21,203.53z" fill="#ffffff"/>
		<path d="M532.06,180.44l-4.55,20.14l-1.93,0.23l2.13-9.45l-9.3,1.13l-2.13,9.45l-1.93,0.23l4.55-20.14l1.93-0.23l-2.04,9.04    l9.3-1.13l2.04-9.04L532.06,180.44z" fill="#ffffff"/>
		<path d="M545.67,178.78l-0.38,1.68l-9.73,1.18L533.9,189l8.39-1.02l-0.37,1.65l-8.39,1.02l-1.75,7.77l9.73-1.18l-0.38,1.68    l-11.66,1.42l4.55-20.14L545.67,178.78z" fill="#ffffff"/>
		<path d="M544.09,198.56l-1.93,0.23l4.55-20.14l5.79-0.7c2.97-0.36,6.16,0.31,5.11,4.96l-0.12,0.52c-0.72,3.2-2.7,4.9-4.82,5.76    l1.68,8.13l-2.12,0.26l-1.47-7.81c-0.33,0.06-0.65,0.1-0.97,0.14l-3.86,0.47L544.09,198.56z M550.23,188.22    c1.79-0.22,4.51-1.18,5.29-4.64l0.09-0.39c0.78-3.46-1.65-3.79-3.44-3.57l-3.91,0.48l-1.94,8.6L550.23,188.22z" fill="#ffffff"/>
	</g>
</g>
</svg>